<svg xmlns="http://www.w3.org/2000/svg" width="24.206" height="16.838" viewBox="0 0 24.206 16.838"><g transform="translate(0 0)"><path d="M22.1,11.313H2.1A2.107,2.107,0,0,1,0,9.209V.263A.264.264,0,0,1,.263,0h23.68a.264.264,0,0,1,.263.263V9.209A2.108,2.108,0,0,1,22.1,11.313ZM17.365,6.841a.789.789,0,0,0,0,1.579h3.158a.789.789,0,0,0,0-1.579Zm-13.155,0a.789.789,0,0,0,0,1.579H7.367a.789.789,0,0,0,0-1.579Zm0-4.209a.789.789,0,0,0,0,1.578h8.42a.789.789,0,1,0,0-1.578Z" transform="translate(0 5.525)" fill="#fff"/><path d="M24.206,2.1A2.1,2.1,0,0,0,22.1,0H2.1A2.1,2.1,0,0,0,0,2.1V3.684a.263.263,0,0,0,.263.263h23.68a.263.263,0,0,0,.263-.263Z" transform="translate(0 0)" fill="#fff"/></g></svg>