<svg xmlns="http://www.w3.org/2000/svg" width="35" height="35" viewBox="0 0 35 35"><path d="M33.208,13.827l-2.457-.417a13.871,13.871,0,0,0-.987-2.384L31.212,9a2.156,2.156,0,0,0-.234-2.786L28.8,4.037A2.146,2.146,0,0,0,27.272,3.4a2.124,2.124,0,0,0-1.25.4L23.989,5.251a13.727,13.727,0,0,0-2.471-1.016l-.409-2.427A2.16,2.16,0,0,0,18.973,0H15.9A2.16,2.16,0,0,0,13.76,1.807l-.424,2.486a13.53,13.53,0,0,0-2.376,1L8.949,3.847a2.16,2.16,0,0,0-2.786.234L3.977,6.26a2.164,2.164,0,0,0-.234,2.786L5.206,11.1a13.549,13.549,0,0,0-.972,2.391L1.806,13.9A2.16,2.16,0,0,0,0,16.035v3.078a2.16,2.16,0,0,0,1.806,2.135l2.486.424a13.53,13.53,0,0,0,1,2.376l-1.44,2a2.156,2.156,0,0,0,.234,2.786l2.179,2.179a2.146,2.146,0,0,0,1.528.636,2.124,2.124,0,0,0,1.25-.4L11.1,29.788a13.831,13.831,0,0,0,2.31.95l.409,2.457A2.16,2.16,0,0,0,15.954,35h3.085a2.16,2.16,0,0,0,2.135-1.806l.417-2.457a13.871,13.871,0,0,0,2.384-.987L26,31.2a2.146,2.146,0,0,0,1.258.4h0a2.146,2.146,0,0,0,1.528-.636l2.179-2.179A2.164,2.164,0,0,0,31.2,26L29.75,23.968a13.772,13.772,0,0,0,.987-2.384l2.457-.409A2.16,2.16,0,0,0,35,19.04V15.962A2.134,2.134,0,0,0,33.208,13.827ZM33.04,19.04a.189.189,0,0,1-.161.19l-3.071.512a.982.982,0,0,0-.79.724,11.7,11.7,0,0,1-1.272,3.063.989.989,0,0,0,.044,1.075L29.6,27.148a.2.2,0,0,1-.022.249L27.4,29.576a.186.186,0,0,1-.139.058.18.18,0,0,1-.11-.037L24.61,27.792a.988.988,0,0,0-1.075-.044,11.7,11.7,0,0,1-3.063,1.272.97.97,0,0,0-.724.79l-.519,3.071a.189.189,0,0,1-.19.161H15.961a.189.189,0,0,1-.19-.161l-.512-3.071a.982.982,0,0,0-.724-.79,12.153,12.153,0,0,1-3-1.228,1.012,1.012,0,0,0-.5-.132.963.963,0,0,0-.57.183L7.911,29.663a.218.218,0,0,1-.11.037.2.2,0,0,1-.139-.058L5.484,27.463a.2.2,0,0,1-.022-.249l1.8-2.522A1,1,0,0,0,7.3,23.61a11.594,11.594,0,0,1-1.287-3.056,1,1,0,0,0-.79-.724L2.135,19.3a.189.189,0,0,1-.161-.19V16.035a.189.189,0,0,1,.161-.19l3.049-.512a.989.989,0,0,0,.8-.731,11.693,11.693,0,0,1,1.25-3.071.976.976,0,0,0-.051-1.067L5.359,7.9a.2.2,0,0,1,.022-.249L7.56,5.477A.186.186,0,0,1,7.7,5.419a.18.18,0,0,1,.11.037l2.522,1.8a1,1,0,0,0,1.082.044,11.594,11.594,0,0,1,3.056-1.287,1,1,0,0,0,.724-.79l.526-3.093a.189.189,0,0,1,.19-.161h3.078a.189.189,0,0,1,.19.161l.512,3.049a.989.989,0,0,0,.731.8,11.867,11.867,0,0,1,3.137,1.287.989.989,0,0,0,1.075-.044L27.155,5.4a.218.218,0,0,1,.11-.037.2.2,0,0,1,.139.058L29.582,7.6a.2.2,0,0,1,.022.249L27.8,10.391a.988.988,0,0,0-.044,1.075,11.7,11.7,0,0,1,1.272,3.063.97.97,0,0,0,.79.724l3.071.519a.189.189,0,0,1,.161.19V19.04Z" transform="translate(0 -0.001)" fill="#fff"/><path d="M143.666,136a7.566,7.566,0,1,0,7.566,7.566A7.571,7.571,0,0,0,143.666,136Zm0,13.154a5.588,5.588,0,1,1,5.588-5.588A5.592,5.592,0,0,1,143.666,149.155Z" transform="translate(-126.162 -126.071)" fill="#fff"/></svg>
