<svg xmlns="http://www.w3.org/2000/svg" width="27.829" height="20.289" viewBox="0 0 27.829 20.289"><path d="M28.136,24.085,20.8,29.059H17.479A2.517,2.517,0,0,0,15,31.612V36.64a2.517,2.517,0,0,0,2.479,2.553h3.315l7.315,4.989a1.477,1.477,0,0,0,1.367-.177,1.571,1.571,0,0,0,.661-1.245l.042-17.252a1.571,1.571,0,0,0-.666-1.254,1.476,1.476,0,0,0-1.378-.169ZM33.922,39.54a.957.957,0,0,1-.942-.877.971.971,0,0,1,.753-1.053,3.592,3.592,0,0,0-.019-7.016.974.974,0,0,1-.738-1.15.947.947,0,0,1,1.116-.76,5.554,5.554,0,0,1,.03,10.824A.92.92,0,0,1,33.922,39.54Z" transform="translate(-15 -23.987)" fill="#fff"/><path d="M68.687,44.578a.955.955,0,0,1-.939-.815.978.978,0,0,1,.632-1.084,8.216,8.216,0,0,0,0-15.389.982.982,0,0,1-.589-1.238.94.94,0,0,1,1.2-.606,10.185,10.185,0,0,1,0,19.076A.918.918,0,0,1,68.687,44.578Z" transform="translate(-47.778 -24.846)" fill="#fff"/></svg>