<svg xmlns="http://www.w3.org/2000/svg" width="46.948" height="48.528" viewBox="0 0 46.948 48.528"><g transform="translate(0 0)"><path d="M23.474,0C36.438,0,46.948,10.863,46.948,24.264S36.438,48.528,23.474,48.528,0,37.665,0,24.264,10.51,0,23.474,0Z" transform="translate(0 0)" fill="#565656"/><g transform="translate(12.408 11.336)"><path d="M46.809,72.046s-1.333-.618-1.333.825a3.285,3.285,0,0,0,1.337,2.408,8.841,8.841,0,0,1,3.871,7.358,8.664,8.664,0,0,1-8.308,8.778,8.664,8.664,0,0,1-8.308-8.778,8.841,8.841,0,0,1,3.871-7.358,3.285,3.285,0,0,0,1.337-2.408c0-1.443-1.333-.825-1.333-.825A11.644,11.644,0,0,0,31.31,82.637,11.464,11.464,0,0,0,42.376,94.256,11.464,11.464,0,0,0,53.442,82.637,11.644,11.644,0,0,0,46.809,72.046Z" transform="translate(-31.31 -68.401)" fill="#fff"/><path d="M233.593,0a1.493,1.493,0,0,0-1.627,1.3V12.747a1.493,1.493,0,0,0,1.627,1.3,1.325,1.325,0,0,0,1.472-1.3V1.3A1.325,1.325,0,0,0,233.593,0Z" transform="translate(-222.45)" fill="#fff"/></g></g></svg>