<svg xmlns="http://www.w3.org/2000/svg" width="15.084" height="19.701" viewBox="0 0 15.084 19.701"><path d="M22.06,0H8.023a.559.559,0,0,0-.1.009A.324.324,0,0,0,7.86.028a.251.251,0,0,0-.1.049C7.74.086,7.728.092,7.728.1a.356.356,0,0,0-.077.062.45.45,0,0,0-.123.212A.415.415,0,0,0,7.5.523V19.172a.416.416,0,0,0,.022.148.434.434,0,0,0,.1.194.3.3,0,0,0,.068.068h0a.483.483,0,0,0,.234.108.312.312,0,0,0,.1.012H22.06a.523.523,0,0,0,.523-.523V.523A.523.523,0,0,0,22.06,0Zm-.526,18.651H10.975l7.12-1.995a.29.29,0,0,0,.212-.28V3.1a.289.289,0,0,0-.219-.28L11.228,1.05H21.534Zm-5.895-8.136V8.961a.292.292,0,1,1,.585,0v1.555a.292.292,0,1,1-.585,0Z" transform="translate(-7.5)" fill="#fff"/></svg>