<svg xmlns="http://www.w3.org/2000/svg" width="137.154" height="140.826" viewBox="0 0 137.154 140.826"><g transform="translate(-1092.808 -355.836)"><path d="M68.577,0c37.874,0,68.577,31.525,68.577,70.413s-30.7,70.413-68.577,70.413S0,109.3,0,70.413,30.7,0,68.577,0Z" transform="translate(1092.808 355.836)" fill="#324a93"/><g transform="translate(958.63 171.985)"><path d="M166,315.162c.945-1.97,2.183-3.622,4.51-4.036a9.617,9.617,0,0,1,1.675-.132q30.513-.01,61.026-.005c3.322,0,5.228,1.482,6.064,4.7.026.1.154.172.234.257v64.907a7.025,7.025,0,0,1-4.692,4.692H170.171A8.2,8.2,0,0,1,166,381.373Zm2.284,33.105q0,15.444,0,30.888c0,2.935,1.158,4.08,4.112,4.08q30.3,0,60.6,0c2.934,0,4.149-1.239,4.149-4.211q0-30.693,0-61.386c0-3.155-1.169-4.341-4.281-4.341q-30.172,0-60.343,0c-3.138,0-4.24,1.094-4.241,4.21Q168.282,332.888,168.284,348.267Z" transform="translate(0 -85.014)" fill="#fff"/><path d="M268.6,196c.945.221,1.891.433,2.834.663a19.815,19.815,0,0,1,9.125,5.25,2.052,2.052,0,0,1,.2,3.1c-.852.86-1.854.783-2.972-.228-7-6.333-15.79-6.332-22.7,0-1.1,1.012-2.1,1.085-2.962.215a2.084,2.084,0,0,1,.224-3.106,19.75,19.75,0,0,1,10.9-5.634c.233-.038.54.08.655-.263Z" transform="translate(-63.234)" fill="#fff"/><path d="M293.152,238.573a1.95,1.95,0,0,1-2.9,1.741,3.98,3.98,0,0,1-.415-.314c-3.832-2.93-6.382-2.919-10.271.043a1.866,1.866,0,0,1-2.776-.149,1.912,1.912,0,0,1,.079-2.7,9.871,9.871,0,0,1,5.69-3.173,10.668,10.668,0,0,1,9.721,2.834A2.172,2.172,0,0,1,293.152,238.573Z" transform="translate(-81.523 -27.945)" fill="#fff"/><path d="M299.94,277.893a3.2,3.2,0,0,1,.075-6.388,3.2,3.2,0,0,1,3.073,3.24A3.157,3.157,0,0,1,299.94,277.893Z" transform="translate(-96.769 -55.823)" fill="#fff"/><path d="M212.431,565Z" transform="translate(-33.831 -272.814)" fill="#fff"/><path d="M222.523,396.412q-12.054,0-24.108,0c-3.473,0-5.6-2.081-5.6-5.582q-.024-24.108,0-48.216c0-3.5,2.106-5.625,5.583-5.629q24.108-.03,48.216,0c3.526,0,5.629,2.19,5.63,5.746q.009,23.978,0,47.956c0,3.624-2.116,5.725-5.743,5.726Q234.512,396.414,222.523,396.412Zm-28.668-29.69q0,11.854,0,23.709c0,3.411,1.517,4.934,4.893,4.934H246.3c3.369,0,4.9-1.547,4.9-4.955q0-23.644,0-47.287c0-3.537-1.538-5.1-5.046-5.1q-23.644,0-47.287,0c-3.467,0-5,1.534-5.006,4.99Q193.85,354.867,193.856,366.721Z" transform="translate(-19.815 -104.222)" fill="#fff"/><path d="M205.886,399.029c1.542,1.342,1.542,1.342.718,3.005a24.637,24.637,0,0,0,18.572,35.589c2.488.371,2.488.371,2.488-2.1,0-1.26.043-2.521-.016-3.778-.035-.744.209-.936.94-.938,2.211-.005,2.21-.04,2.21,2.141v4.811a24.7,24.7,0,0,0,22.393-26.836,22.022,22.022,0,0,0-1.341-5.944c-.347-.9-.221-1.413.663-1.861.676-.342.824-.134,1.06.48a25.271,25.271,0,0,1,1.153,15.342c-2.661,10.824-9.513,17.752-20.34,20.356-15.031,3.615-30.17-6.981-32.264-22.315A26.828,26.828,0,0,1,205.886,399.029Z" transform="translate(-26.509 -150.105)" fill="#fff"/><path d="M241.3,356.513a26.9,26.9,0,0,1,38.3,5.631c.375.505.8.942.01,1.482-.721.5-1.182.548-1.776-.279a24.6,24.6,0,0,0-14.947-9.864c-2.927-.676-2.927-.674-2.927,2.226,0,2.009-.661,2.477-2.709,2.025-.548-.121-.416-.457-.42-.767a26.623,26.623,0,0,1,.014-2.864c.09-.966-.283-1.152-1.167-1.075a25.1,25.1,0,0,0-11.528,4.034C242.57,358.076,242.571,358.078,241.3,356.513Z" transform="translate(-55.669 -114.524)" fill="#fff"/><path d="M244.513,446.339a4.012,4.012,0,0,1-4.011-4.065,4.138,4.138,0,0,1,4.05-4.079,4.2,4.2,0,0,1,4.1,4.185A4.08,4.08,0,0,1,244.513,446.339Zm.092-6.039a1.979,1.979,0,0,0-2.011,1.952,1.921,1.921,0,0,0,1.932,2.008,1.987,1.987,0,0,0,2.035-1.926A2.046,2.046,0,0,0,244.605,440.3Z" transform="translate(-55.081 -179.062)" fill="#fff"/><path d="M346.1,442.279a4.055,4.055,0,0,1-8.109.079,4.056,4.056,0,1,1,8.109-.079Zm-4.065,1.975a1.9,1.9,0,0,0,1.974-1.96,1.966,1.966,0,1,0-3.931-.023A1.914,1.914,0,0,0,342.034,444.254Z" transform="translate(-127.157 -179.052)" fill="#fff"/></g></g></svg>