<svg xmlns="http://www.w3.org/2000/svg" width="179.745" height="184.559" viewBox="0 0 179.745 184.559"><path d="M89.873,0c49.635,0,89.873,41.315,89.873,92.279s-40.237,92.279-89.873,92.279S0,143.244,0,92.279,40.237,0,89.873,0Z" transform="translate(0 0)" fill="#324a93"/><g transform="translate(42.505 25.808)"><path d="M133.631,91.975H64.347a7.589,7.589,0,0,1-7.258-9.247l9.543-51.687A7.475,7.475,0,0,1,73.889,25h48.08a7.475,7.475,0,0,1,7.256,6.041l11.661,51.687A7.586,7.586,0,0,1,133.631,91.975Z" transform="translate(-48.44 -18.448)" fill="none"/><path d="M139.993,203.737H116.668l0,0c4.75-6.014,7.419-7.983,7.419-22.675V152.778h8.481v28.281c0,14.692,2.669,16.662,7.419,22.675Z" transform="translate(-77.781 -79.251)" fill="none"/><path d="M58.982,83.843H49.8a5.421,5.421,0,0,1-5.185-6.605L56.28,21.182a5.338,5.338,0,0,1,5.182-4.314h52.321a5.339,5.339,0,0,1,5.183,4.314l1.927,9.263a2.122,2.122,0,0,0,2.518,1.678,2.185,2.185,0,0,0,1.629-2.593l-1.927-9.262a9.611,9.611,0,0,0-9.329-7.767H61.462a9.611,9.611,0,0,0-9.329,7.768L40.469,76.323A9.757,9.757,0,0,0,49.8,88.211h9.181a2.185,2.185,0,0,0,0-4.368ZM123.6,43.449l7.029,33.79a5.418,5.418,0,0,1-5.182,6.6H69.9a2.185,2.185,0,0,0,0,4.368h55.544a9.754,9.754,0,0,0,9.329-11.889s-7.029-33.788-7.029-33.788a2.123,2.123,0,0,0-2.518-1.678A2.186,2.186,0,0,0,123.6,43.449Z" transform="translate(-40.254 -12.5)" fill="#fff" fill-rule="evenodd"/><path d="M105.29,67.545a17.311,17.311,0,0,1,24.991,0,2.078,2.078,0,0,0,3,0,2.232,2.232,0,0,0,0-3.089,21.465,21.465,0,0,0-30.987,0,2.231,2.231,0,0,0,0,3.088A2.078,2.078,0,0,0,105.29,67.545Z" transform="translate(-70.416 -34.078)" fill="#fff" fill-rule="evenodd"/><path d="M119.039,84.838a7.616,7.616,0,0,1,11,0,2.078,2.078,0,0,0,3,0,2.232,2.232,0,0,0,0-3.089,11.771,11.771,0,0,0-16.993,0,2.232,2.232,0,0,0,0,3.089A2.078,2.078,0,0,0,119.039,84.838Z" transform="translate(-77.168 -43.727)" fill="#fff" fill-rule="evenodd"/><path d="M133.452,101.861a3.359,3.359,0,1,0-3.357,3.458A3.41,3.41,0,0,0,133.452,101.861Z" transform="translate(-82.726 -53.377)" fill="#fff" fill-rule="evenodd"/><path d="M102.124,203.936v0h29.686s1.569-2.608,1.566-3.5l.047-.1c-4.439-5.379-6.914-7.148-6.914-20.289V164.287a2.121,2.121,0,1,0-4.241,0v15.761c0,11.72,1.752,15.5,4.937,19.522H106.729c3.185-4.025,4.937-7.8,4.937-19.522V150.8a2.121,2.121,0,1,0-4.241,0v29.253c0,13.109-2.463,14.9-6.881,20.249a1.855,1.855,0,0,0-.339.533,2.239,2.239,0,0,0,0,1.838A2.119,2.119,0,0,0,102.124,203.936Zm0,0c-.039-.159-1.043-4.192-1.5-3.726-.029.03-.057.06-.083.09l-.034.04a2.145,2.145,0,0,0-.305.493C99.562,202.411,102.014,203.87,102.123,203.933Z" transform="translate(-69.599 -77.268)" fill="#fff" fill-rule="evenodd"/><path d="M77.817,250.2H132.24a2.185,2.185,0,0,0,0-4.368H77.817a2.185,2.185,0,0,0,0,4.368Z" transform="translate(-57.66 -123.531)" fill="#fff" fill-rule="evenodd"/></g></svg>